<?xml version="1.0" encoding="UTF-8"?>
<svg xmlns="http://www.w3.org/2000/svg" viewBox="0 0 1024 1024" width="1024" height="1024">
  <defs>
    <linearGradient id="goldGradient" x1="0%" y1="0%" x2="0%" y2="100%">
      <stop offset="0%" stop-color="#FFD54F"/>
      <stop offset="100%" stop-color="#F5A623"/>
    </linearGradient>
  </defs>
  <rect width="1024" height="1024" fill="#000000"/>
  <g transform="translate(0,1024) scale(0.1,-0.1)" fill="url(#goldGradient)">
    <path d="M4860 8749 c-509 -29 -976 -161 -1413 -401 -580 -317 -1057 -806 -1350 -1383 -148 -292 -229 -532 -291 -859 -89 -465 -69 -1005 54 -1461 184 -688 616 -1308 1232 -1769 492 -368 1172 -609 1794 -635 546 -22 987 57 1489 267 503 211 979 589 1327 1053 340 453 557 994 630 1569 17 135 17 630 0 760 -93 716 -396 1341 -900 1861 -280 289 -569 498 -922 667 -416 200 -813 303 -1285 332 -165 10 -170 10 -365 -1z m610 -144 c743 -103 1436 -459 1919 -985 338 -367 562 -751 704 -1205 276 -879 132 -1858 -388 -2640 -242 -364 -493 -615 -900 -900 l-70 -49 109 104 c413 396 679 919 767 1505 33 217 33 558 0 765 -75 476 -257 896 -549 1265 -127 161 -363 380 -549 511 -300 211 -689 363 -1079 420 -172 26 -604 26 -764 0 -296 -47 -545 -128 -808 -262 -236 -122 -440 -271 -632 -464 -486 -485 -749 -1121 -751 -1815 -1 -611 170 -1148 515 -1608 100 -134 286 -335 382 -413 33 -27 -8 -2 -91 55 -513 351 -904 805 -1143 1331 -71 156 -136 336 -168 465 -9 33 -19 76 -24 95 -5 19 -20 100 -34 180 -59 343 -60 740 0 1070 81 456 229 826 479 1200 246 368 558 669 949 917 386 245 881 418 1321 462 61 6 124 13 140 15 73 10 556 -4 665 -19z m-60 -1329 c105 -16 258 -49 335 -72 82 -26 197 -66 240 -84 149 -65 190 -84 266 -126 677 -379 1129 -1049 1246 -1849 27 -182 24 -517 -5 -695 -75 -458 -225 -813 -500 -1179 -116 -154 -340 -369 -527 -506 -44 -32 -87 -63 -95 -69 -8 -6 35 39 96 99 178 177 283 321 397 550 161 322 231 676 205 1045 -32 467 -223 902 -542 1237 -239 251 -521 426 -873 542 -79 26 -273 67 -383 81 -108 13 -349 13 -465 0 -276 -32 -597 -145 -834 -293 -224 -140 -466 -378 -613 -602 -307 -470 -407 -1055 -273 -1599 80 -327 217 -589 454 -871 71 -84 73 -88 31 -56 -293 225 -547 535 -718 877 -34 68 -65 143 -122 294 -42 112 -101 383 -120 555 -14 127 -14 401 0 534 51 482 223 912 516 1288 269 344 654 620 1085 778 160 59 400 115 574 134 121 13 508 5 625 -13z m-30 -1165 c401 -81 721 -242 992 -499 643 -612 769 -1607 300 -2367 -118 -190 -291 -386 -463 -524 -137 -111 -148 -113 -49 -12 110 112 206 248 275 386 67 137 98 222 132 367 24 103 26 132 27 323 0 182 -3 224 -22 310 -47 211 -126 394 -245 569 -126 186 -358 387 -564 490 -384 191 -823 225 -1218 95 -482 -160 -854 -541 -1004 -1029 -117 -379 -81 -810 96 -1165 37 -72 130 -215 166 -252 17 -18 26 -33 20 -33 -6 0 -61 52 -121 116 -259 272 -424 575 -511 934 -111 459 -18 1006 245 1430 298 483 791 797 1379 880 110 16 448 4 565 -19z m-239 -911 c360 -28 680 -171 925 -415 194 -193 317 -415 382 -688 24 -102 26 -130 26 -312 0 -191 -1 -205 -30 -320 -53 -205 -132 -372 -251 -535 -58 -79 -263 -288 -323 -330 -31 -22 -29 -18 18 35 195 220 312 519 312 795 0 325 -121 614 -350 841 -369 364 -926 453 -1385 222 -336 -170 -578 -499 -636 -865 -19 -126 -7 -371 25 -490 44 -162 97 -284 173 -398 9 -14 -4 -5 -30 20 -26 24 -45 51 -42 58 2 7 1 11 -4 7 -11 -6 -58 51 -118 140 -109 163 -183 347 -219 545 -23 127 -23 351 -1 489 55 335 248 677 492 871 261 208 530 311 881 338 11 1 81 -3 155 -8z m29 -714 c459 -74 823 -428 895 -869 58 -358 -60 -696 -345 -987 l-34 -35 22 35 c115 182 179 403 168 575 -14 235 -104 433 -268 591 -137 134 -287 209 -472 239 -115 19 -187 19 -303 0 -337 -55 -612 -302 -704 -635 -32 -113 -34 -325 -5 -440 23 -92 70 -213 98 -254 l21 -31 -31 29 c-39 36 -120 152 -155 221 -35 71 -81 215 -102 319 -25 130 -17 357 17 476 102 354 357 618 706 730 152 49 331 62 492 36z m-73 -567 c178 -24 327 -101 454 -236 137 -143 199 -303 201 -513 1 -162 -42 -309 -135 -453 -52 -82 -73 -97 -38 -28 51 99 67 290 36 412 -57 219 -251 413 -466 464 -75 17 -236 20 -311 4 -213 -44 -422 -247 -473 -460 -31 -133 -13 -325 41 -431 35 -70 8 -47 -52 43 -58 88 -90 167 -114 286 -25 121 -25 220 -1 331 33 146 84 243 186 351 171 183 413 266 672 230z m15 -470 c80 -17 186 -76 248 -139 106 -107 158 -248 147 -398 -6 -92 -25 -152 -79 -250 -45 -82 -60 -91 -27 -17 18 41 21 62 17 149 -4 89 -8 108 -35 162 -43 82 -126 165 -209 205 -58 29 -80 34 -158 37 -112 5 -184 -12 -259 -62 -182 -121 -251 -323 -171 -506 l24 -55 -25 30 c-36 44 -92 162 -104 223 -39 189 14 369 146 492 105 99 204 139 345 139 48 1 111 -4 140 -10z"/>
  </g>
</svg>